<svg xmlns="http://www.w3.org/2000/svg" width="40.448" height="40.69" viewBox="0 0 40.448 40.69">
  <g id="badminton" transform="translate(-0.266 0.003)">
    <path id="Path_958" data-name="Path 958" d="M292.161,308.448a3.811,3.811,0,0,1-2.694-6.506l1.67-1.67,5.222-9.4,9.568,9.574-9.4,5.222-1.672,1.671A3.785,3.785,0,0,1,292.161,308.448Zm0,0" transform="translate(-265.213 -267.781)" fill="#ffd54f"/>
    <path id="Path_959" data-name="Path 959" d="M296.277,414.663l-1.672,1.67a3.811,3.811,0,1,1-5.388-5.39l1.67-1.67Zm0,0" transform="translate(-264.964 -376.784)" fill="#b59e8d"/>
    <path id="Path_960" data-name="Path 960" d="M217.247,16.266v6.351h-7.621v2.54h2.54V27.7h-3.811v2.54h3.811V36.59h2.54V30.238h2.54V36.59h2.54V30.238h7.621V27.7h-2.54v-2.54h3.811v-2.54h-3.811V16.266h-2.541v6.351h-2.54V16.266Zm0,11.432h-2.54v-2.54h2.54Zm5.081,0h-2.54v-2.54h2.54Zm0,0" transform="translate(-191.57 -14.977)" fill="#cfd8dc"/>
    <path id="Path_961" data-name="Path 961" d="M152.56,2.3a8.562,8.562,0,0,0-7.7-2.1,15.567,15.567,0,0,0-8.265,4.471,15.572,15.572,0,0,0-4.473,8.266,8.926,8.926,0,0,0,1.289,6.707l-6.65,6.647,1.8,1.8,6.643-6.642a8.412,8.412,0,0,0,4.878,1.443A14.8,14.8,0,0,0,150.2,18.283a15.577,15.577,0,0,0,4.473-8.268A8.574,8.574,0,0,0,152.56,2.3Zm-.4,7.293a13.024,13.024,0,0,1-3.763,6.887c-4.065,4.065-9.616,5.125-12.378,2.363a6.112,6.112,0,0,1-1.4-5.491,13.034,13.034,0,0,1,3.762-6.887,13.023,13.023,0,0,1,6.887-3.761,8.689,8.689,0,0,1,1.432-.127A5.59,5.59,0,0,1,150.77,4.1,6.115,6.115,0,0,1,152.163,9.6Zm0,0" transform="translate(-116.45 0)" fill="#b0bec5"/>
    <path id="Path_962" data-name="Path 962" d="M4.631,307.2a4.371,4.371,0,0,1-3.088-7.461l7.473-7.474,6.182,6.182-7.477,7.473A4.353,4.353,0,0,1,4.631,307.2Zm0,0" transform="translate(0 -269.065)" fill="#ff6e40"/>
    <path id="Path_963" data-name="Path 963" d="M82.144,355.016l1.8,1.8-1.8,1.8-1.8-1.8Zm0,0" transform="translate(-73.724 -326.833)" fill="#fff"/>
  </g>
</svg>
