<svg id="ball" xmlns="http://www.w3.org/2000/svg" width="37.576" height="37.576" viewBox="0 0 37.576 37.576">
  <path id="Path_964" data-name="Path 964" d="M37.576,18.788,34.246,23.9l-.8,6.65a18.827,18.827,0,0,1-8.235,5.9l-6.419-1.1-6.443,1.088a18.828,18.828,0,0,1-8.212-5.9l-.8-6.137L0,18.788A18.7,18.7,0,0,1,3.329,8.108L8.9,5.929l4.038-5a18.89,18.89,0,0,1,11.693,0l3.974,4.988,5.637,2.191A18.7,18.7,0,0,1,37.576,18.788Zm0,0" fill="#6b7d8e"/>
  <path id="Path_965" data-name="Path 965" d="M9.108,104.216C5.392,98.391,6.5,90.723,8.037,85.406L3.33,87.245A18.7,18.7,0,0,0,0,97.926l3.329,5.622.8,6.134a18.829,18.829,0,0,0,8.213,5.9l6.442-1.088,1.025.175C16.966,112.268,13.238,110.69,9.108,104.216Zm0,0" transform="translate(0 -79.138)" fill="#6b7d8e"/>
  <path id="Path_966" data-name="Path 966" d="M136.018,341.7l-3.478,2.989-1.353,3.658,2.717,4.717a18.871,18.871,0,0,0,12.861.009l2.741-4.726-1.417-3.745-3.415-2.9Zm0,0" transform="translate(-121.56 -316.625)" fill="#b0f0ef"/>
  <path id="Path_967" data-name="Path 967" d="M3.969,194.895,0,199.379a18.7,18.7,0,0,0,4.134,11.759l5.494,1.178,4.831-6.647-2.675-8.234L8.129,196.02Zm0,0" transform="translate(0 -180.591)" fill="#76e7e7"/>
  <path id="Path_968" data-name="Path 968" d="M259.359,26.013l.64-6.2a18.824,18.824,0,0,0-9.612-7.179l-5.847,2.611-.907,3.941.907,4.276,7,5.089,4.41-.356Zm0,0" transform="translate(-225.752 -11.709)" fill="#2eddda"/>
  <path id="Path_969" data-name="Path 969" d="M329.44,199.379l-3.97-4.485-7.814,2.541-2.675,8.234,4.831,6.647,5.494-1.178A18.707,18.707,0,0,0,329.44,199.379Zm0,0" transform="translate(-291.864 -180.591)" fill="#76e7e7"/>
  <path id="Path_970" data-name="Path 970" d="M45.359,19.817l.64,6.2,7.814,2.541,7-5.089V15.248l-5.846-2.611A18.827,18.827,0,0,0,45.359,19.817Zm0,0" transform="translate(-42.03 -11.709)" fill="#b0f0ef"/>
  <path id="Path_971" data-name="Path 971" d="M133.36,391.543l-2.172,2.989,2.717,4.717a18.749,18.749,0,0,0,6.443,1.134,18.965,18.965,0,0,0,2.828-.211C140.742,397.086,137.308,396.144,133.36,391.543Zm0,0" transform="translate(-121.56 -362.807)" fill="#76e7e7"/>
  <path id="Path_972" data-name="Path 972" d="M0,199.379a18.7,18.7,0,0,0,4.134,11.759l5.494,1.178,2.172-2.989a32.042,32.042,0,0,1-2.692-3.658,17.764,17.764,0,0,1-2.5-9.918l-2.636-.857Zm0,0" transform="translate(0 -180.591)" fill="#2eddda"/>
  <path id="Path_973" data-name="Path 973" d="M45.359,40.677l.64,6.2,2.636.857A37.975,37.975,0,0,1,51.31,35.148,18.891,18.891,0,0,0,45.359,40.677Zm0,0" transform="translate(-42.03 -32.569)" fill="#76e7e7"/>
</svg>
