<svg xmlns="http://www.w3.org/2000/svg" width="35.825" height="35.825" viewBox="0 0 35.825 35.825">
  <g id="basketball" transform="translate(0)">
    <path id="Path_946" data-name="Path 946" d="M35.825,17.913A17.913,17.913,0,1,1,17.913,0,17.912,17.912,0,0,1,35.825,17.913Zm0,0" transform="translate(0)" fill="#ff6e40"/>
    <path id="Path_947" data-name="Path 947" d="M18.086,239.674A17.9,17.9,0,0,1,.328,224a17.913,17.913,0,1,0,35.516,0A17.9,17.9,0,0,1,18.086,239.674Zm0,0" transform="translate(-0.173 -208.326)" fill="#e64a19"/>
    <path id="Path_948" data-name="Path 948" d="M21.927,23.51l7.822,7.822a18.179,18.179,0,0,0,1.583-1.583L23.5,21.913a12.417,12.417,0,0,1,7.915-2.526,19.865,19.865,0,0,1,4.3.506,18.026,18.026,0,0,0,.113-1.981c0-.076-.01-.15-.011-.224-5.35-1.089-10.357-.283-13.89,2.654L19.5,17.913,31.333,6.076a18.179,18.179,0,0,0-1.583-1.583L17.913,16.33,15.484,13.9c2.939-3.533,3.745-8.54,2.652-13.89-.077,0-.151-.011-.224-.011a18.088,18.088,0,0,0-1.995.118c1.048,4.727.448,9.115-2.015,12.2L6.076,4.493A18.179,18.179,0,0,0,4.493,6.076L12.315,13.9C9.232,16.37,4.843,16.966.118,15.913a18.1,18.1,0,0,0-.118,2c0,.082.011.16.012.242a22.183,22.183,0,0,0,4.442.479A14.529,14.529,0,0,0,13.916,15.5l2.414,2.414L4.493,29.749a18.179,18.179,0,0,0,1.583,1.583L17.913,19.5l2.428,2.428c-2.939,3.533-3.745,8.54-2.655,13.89.077,0,.151.011.224.011a18.089,18.089,0,0,0,1.995-.118C18.86,30.981,19.455,26.592,21.927,23.51Zm0,0" transform="translate(0 0)" fill="#fff"/>
    <g id="Group_79" data-name="Group 79" transform="translate(4.493 27.457)">
      <path id="Path_949" data-name="Path 949" d="M66.5,392.4l-2.293,2.293a18.177,18.177,0,0,0,1.583,1.583l2.583-2.583A17.888,17.888,0,0,1,66.5,392.4Zm0,0" transform="translate(-64.207 -392.398)" fill="#cfd8dc"/>
      <path id="Path_950" data-name="Path 950" d="M248.59,446.895c-.5.043-1.007.077-1.521.077-.224,0-.448-.026-.672-.034a22.1,22.1,0,0,0,.448,4.5c.077,0,.151.011.224.011a18.113,18.113,0,0,0,2-.117A19.608,19.608,0,0,1,248.59,446.895Zm0,0" transform="translate(-233.649 -443.081)" fill="#cfd8dc"/>
      <path id="Path_951" data-name="Path 951" d="M388.258,393.692l2.583,2.583a18.176,18.176,0,0,0,1.583-1.583l-2.293-2.293A17.884,17.884,0,0,1,388.258,393.692Zm0,0" transform="translate(-365.584 -392.398)" fill="#cfd8dc"/>
    </g>
  </g>
</svg>
