<svg xmlns="http://www.w3.org/2000/svg" width="45.247" height="45.255" viewBox="0 0 45.247 45.255">
  <g id="billiards" transform="translate(-0.043)">
    <path id="Path_952" data-name="Path 952" d="M45.29,22.623A22.623,22.623,0,1,1,22.666,0,22.623,22.623,0,0,1,45.29,22.623Zm0,0" fill="#57565c"/>
    <path id="Path_953" data-name="Path 953" d="M130.908,117.433A13.433,13.433,0,1,1,117.476,104,13.432,13.432,0,0,1,130.908,117.433Zm0,0" transform="translate(-94.809 -94.809)" fill="#fff"/>
    <path id="Path_954" data-name="Path 954" d="M203.351,180.241A4.242,4.242,0,0,0,199.109,176h-2.828a4.224,4.224,0,0,0-3.139,7.07,4.224,4.224,0,0,0,3.139,7.07h2.828a4.223,4.223,0,0,0,3.139-7.07A4.213,4.213,0,0,0,203.351,180.241Zm-7.07-1.414h2.828a1.414,1.414,0,1,1,0,2.828h-2.828a1.414,1.414,0,0,1,0-2.828Zm2.828,8.484h-2.828a1.414,1.414,0,0,1,0-2.828h2.828a1.414,1.414,0,0,1,0,2.828Zm0,0" transform="translate(-175.028 -160.446)" fill="#57565c"/>
    <path id="Path_955" data-name="Path 955" d="M357.531,66l2-2,2,2-2,2Zm0,0" transform="translate(-325.896 -58.341)" fill="#fff"/>
    <path id="Path_956" data-name="Path 956" d="M402.793,111.261l2-2,2,2-2,2Zm0,0" transform="translate(-367.158 -99.606)" fill="#fff"/>
    <path id="Path_957" data-name="Path 957" d="M22.839,243.8A22.642,22.642,0,0,1,.412,224a22.624,22.624,0,1,0,44.854,0A22.642,22.642,0,0,1,22.839,243.8Zm0,0" transform="translate(-0.172 -204.204)" fill="#2d2d30"/>
  </g>
</svg>
