<svg xmlns="http://www.w3.org/2000/svg" xmlns:xlink="http://www.w3.org/1999/xlink" width="254" height="254" viewBox="0 0 254 254">
  <defs>
    <clipPath id="clip-path">
      <circle id="Ellipse_120" data-name="Ellipse 120" cx="127" cy="127" r="127" transform="translate(843.151 4787)" fill="#fff" stroke="#707070" stroke-width="1"/>
    </clipPath>
  </defs>
  <g id="Mask_Group_5" data-name="Mask Group 5" transform="translate(-843.151 -4787)" clip-path="url(#clip-path)">
    <g id="gym_1_" data-name="gym (1)" transform="translate(847.384 4787)">
      <path id="Path_1190" data-name="Path 1190" d="M198.967,29.634H46.567a4.233,4.233,0,0,0-4.234,4.232v8.467a4.234,4.234,0,0,0,4.234,4.234h152.4a4.234,4.234,0,0,0,4.234-4.234V33.866A4.233,4.233,0,0,0,198.967,29.634Zm0,0" fill="#cfd8dc"/>
      <path id="Path_1191" data-name="Path 1191" d="M67.734,16.933A8.466,8.466,0,0,1,76.2,25.4V50.8a8.468,8.468,0,0,1-16.935,0V25.4A8.468,8.468,0,0,1,67.734,16.933Zm0,0" fill="#545c60"/>
      <path id="Path_1192" data-name="Path 1192" d="M84.667,4.234A8.466,8.466,0,0,1,93.134,12.7V63.5a8.467,8.467,0,0,1-16.933,0V12.7A8.466,8.466,0,0,1,84.667,4.234Zm0,0" fill="#37474f"/>
      <path id="Path_1193" data-name="Path 1193" d="M177.8,59.266a8.466,8.466,0,0,1-8.467-8.467V25.4a8.467,8.467,0,0,1,16.933,0V50.8A8.466,8.466,0,0,1,177.8,59.266Zm0,0" fill="#545c60"/>
      <path id="Path_1194" data-name="Path 1194" d="M67.734,21.167A8.466,8.466,0,0,1,76.2,29.634v4.232a8.468,8.468,0,0,1-16.935,0V29.634A8.468,8.468,0,0,1,67.734,21.167Zm0,0" fill="#7f8e94"/>
      <path id="Path_1195" data-name="Path 1195" d="M177.8,42.333a8.466,8.466,0,0,1-8.467-8.467V29.634a8.467,8.467,0,0,1,16.933,0v4.232A8.466,8.466,0,0,1,177.8,42.333Zm0,0" fill="#7f8e94"/>
      <path id="Path_1196" data-name="Path 1196" d="M160.866,71.967A8.466,8.466,0,0,1,152.4,63.5V12.7a8.467,8.467,0,1,1,16.933,0V63.5A8.466,8.466,0,0,1,160.866,71.967Zm0,0" fill="#37474f"/>
      <path id="Path_1197" data-name="Path 1197" d="M84.667,4.234A8.466,8.466,0,0,1,93.134,12.7V50.8a8.467,8.467,0,1,1-16.933,0V12.7A8.466,8.466,0,0,1,84.667,4.234Zm0,0" fill="#607d8b"/>
      <path id="Path_1198" data-name="Path 1198" d="M160.866,59.266A8.466,8.466,0,0,1,152.4,50.8V12.7a8.467,8.467,0,1,1,16.933,0V50.8A8.466,8.466,0,0,1,160.866,59.266Zm0,0" fill="#607d8b"/>
      <path id="Path_1199" data-name="Path 1199" d="M228.6,105.833V228.6H16.933V105.833" fill="#dfc49c"/>
      <path id="Path_1200" data-name="Path 1200" d="M215.9,105.833V228.6H16.933V105.833" fill="#ffe0b2"/>
      <path id="Path_1201" data-name="Path 1201" d="M12.7,228.6H232.833a8.466,8.466,0,0,1,8.467,8.467V247.65a2.116,2.116,0,0,1-2.116,2.116H6.35a2.116,2.116,0,0,1-2.116-2.116V237.067A8.466,8.466,0,0,1,12.7,228.6Zm0,0" fill="#549414"/>
      <path id="Path_1202" data-name="Path 1202" d="M12.7,228.6H220.134a8.466,8.466,0,0,1,8.467,8.467V247.65a2.116,2.116,0,0,1-2.116,2.116H6.35a2.116,2.116,0,0,1-2.116-2.116V237.067A8.466,8.466,0,0,1,12.7,228.6Zm0,0" fill="#60a917"/>
      <path id="Path_1203" data-name="Path 1203" d="M97.366,148.167V228.6H38.1V148.167a4.246,4.246,0,0,1,4.232-4.234h50.8A4.246,4.246,0,0,1,97.366,148.167Zm0,0" fill="#c81e1e"/>
      <path id="Path_1204" data-name="Path 1204" d="M84.667,148.167V228.6H38.1V148.167a4.246,4.246,0,0,1,4.232-4.234h38.1A4.249,4.249,0,0,1,84.667,148.167Zm0,0" fill="#f44335"/>
      <path id="Path_1205" data-name="Path 1205" d="M207.433,148.167v63.5H122.766v-63.5A4.249,4.249,0,0,1,127,143.933h76.2A4.246,4.246,0,0,1,207.433,148.167Zm0,0" fill="#0377bc"/>
      <path id="Path_1206" data-name="Path 1206" d="M194.734,148.167v63.5H122.766v-63.5A4.249,4.249,0,0,1,127,143.933h63.5A4.249,4.249,0,0,1,194.734,148.167Zm0,0" fill="#02a9f4"/>
      <path id="Path_1207" data-name="Path 1207" d="M232.833,76.2V88.9H12.7V76.2a4.246,4.246,0,0,1,4.232-4.234H228.6A4.246,4.246,0,0,1,232.833,76.2Zm0,0" fill="#bb193b"/>
      <path id="Path_1208" data-name="Path 1208" d="M220.134,76.2V88.9H12.7V76.2a4.246,4.246,0,0,1,4.232-4.234H215.9A4.249,4.249,0,0,1,220.134,76.2Zm0,0" fill="#ef314c"/>
      <path id="Path_1209" data-name="Path 1209" d="M232.833,88.9v12.7a4.243,4.243,0,0,1-4.232,4.232H16.933A4.243,4.243,0,0,1,12.7,101.6V88.9Zm0,0" fill="#549414"/>
      <path id="Path_1210" data-name="Path 1210" d="M220.134,88.9v12.7a4.246,4.246,0,0,1-4.234,4.232H16.933A4.243,4.243,0,0,1,12.7,101.6V88.9Zm0,0" fill="#60a917"/>
      <path id="Path_1211" data-name="Path 1211" d="M67.734,59.266a12.713,12.713,0,0,1-12.7-12.7V29.634a12.7,12.7,0,1,1,25.4,0V46.567A12.713,12.713,0,0,1,67.734,59.266Zm0-33.866A4.241,4.241,0,0,0,63.5,29.634V46.567a4.233,4.233,0,0,0,8.467,0V29.634A4.239,4.239,0,0,0,67.734,25.4Zm0,0"/>
      <path id="Path_1212" data-name="Path 1212" d="M84.667,76.2a12.715,12.715,0,0,1-12.7-12.7V12.7a12.7,12.7,0,1,1,25.4,0V63.5A12.714,12.714,0,0,1,84.667,76.2Zm0-67.734A4.241,4.241,0,0,0,80.433,12.7V63.5a4.233,4.233,0,1,0,8.467,0V12.7A4.238,4.238,0,0,0,84.667,8.467Zm0,0"/>
      <path id="Path_1213" data-name="Path 1213" d="M59.266,50.8h-12.7A8.474,8.474,0,0,1,38.1,42.333V33.866A8.475,8.475,0,0,1,46.567,25.4h12.7A4.234,4.234,0,0,1,63.5,29.634V46.567A4.233,4.233,0,0,1,59.266,50.8Zm-12.7-16.933v8.467h8.467V33.866Zm0,0"/>
      <path id="Path_1214" data-name="Path 1214" d="M177.8,59.266a12.713,12.713,0,0,1-12.7-12.7V29.634a12.7,12.7,0,1,1,25.4,0V46.567A12.713,12.713,0,0,1,177.8,59.266Zm0-33.866a4.239,4.239,0,0,0-4.232,4.234V46.567a4.233,4.233,0,0,0,8.467,0V29.634A4.241,4.241,0,0,0,177.8,25.4Zm0,0"/>
      <path id="Path_1215" data-name="Path 1215" d="M160.866,76.2a12.713,12.713,0,0,1-12.7-12.7V12.7a12.7,12.7,0,1,1,25.4,0V63.5A12.715,12.715,0,0,1,160.866,76.2Zm0-67.734a4.238,4.238,0,0,0-4.232,4.234V63.5a4.233,4.233,0,1,0,8.467,0V12.7A4.241,4.241,0,0,0,160.866,8.467Zm0,0"/>
      <path id="Path_1216" data-name="Path 1216" d="M198.967,50.8h-12.7a4.233,4.233,0,0,1-4.232-4.232V29.634a4.233,4.233,0,0,1,4.232-4.234h12.7a8.475,8.475,0,0,1,8.467,8.467v8.467A8.474,8.474,0,0,1,198.967,50.8ZM190.5,42.333h8.467V33.866H190.5Zm0,0"/>
      <path id="Path_1217" data-name="Path 1217" d="M152.4,50.8H93.134A4.233,4.233,0,0,1,88.9,46.567V29.634A4.234,4.234,0,0,1,93.134,25.4H152.4a4.234,4.234,0,0,1,4.234,4.234V46.567A4.233,4.233,0,0,1,152.4,50.8ZM97.366,42.333h50.8V33.866h-50.8Zm0,0"/>
      <path id="Path_1218" data-name="Path 1218" d="M228.6,232.833H16.933A4.233,4.233,0,0,1,12.7,228.6V105.833a4.233,4.233,0,0,1,8.467,0V224.366h203.2V105.833a4.233,4.233,0,0,1,8.467,0V228.6A4.233,4.233,0,0,1,228.6,232.833Zm0,0"/>
      <path id="Path_1219" data-name="Path 1219" d="M239.183,254H6.35A6.357,6.357,0,0,1,0,247.65V237.067a12.715,12.715,0,0,1,12.7-12.7H232.833a12.715,12.715,0,0,1,12.7,12.7V247.65A6.357,6.357,0,0,1,239.183,254ZM8.467,245.533h228.6v-8.467a4.241,4.241,0,0,0-4.234-4.234H12.7a4.241,4.241,0,0,0-4.234,4.234Zm0,0"/>
      <path id="Path_1220" data-name="Path 1220" d="M97.366,232.833H38.1a4.233,4.233,0,0,1-4.234-4.232V148.167a8.475,8.475,0,0,1,8.467-8.467h50.8a8.475,8.475,0,0,1,8.467,8.467V228.6A4.233,4.233,0,0,1,97.366,232.833Zm-55.033-8.467h50.8v-76.2h-50.8Zm0,0"/>
      <path id="Path_1221" data-name="Path 1221" d="M67.734,232.833A4.233,4.233,0,0,1,63.5,228.6V143.933a4.233,4.233,0,0,1,8.467,0V228.6A4.233,4.233,0,0,1,67.734,232.833Zm0,0"/>
      <path id="Path_1222" data-name="Path 1222" d="M76.2,186.266H59.266a4.233,4.233,0,0,1,0-8.467H76.2a4.233,4.233,0,0,1,0,8.467Zm0,0"/>
      <path id="Path_1223" data-name="Path 1223" d="M207.433,215.9H122.766a4.233,4.233,0,0,1-4.232-4.232v-63.5A8.474,8.474,0,0,1,127,139.7h76.2a8.475,8.475,0,0,1,8.467,8.467v63.5A4.233,4.233,0,0,1,207.433,215.9ZM127,207.433h76.2V148.167H127Zm0,0"/>
      <path id="Path_1224" data-name="Path 1224" d="M211.667,215.9H118.533a4.233,4.233,0,1,1,0-8.467h93.134a4.233,4.233,0,0,1,0,8.467Zm0,0"/>
      <path id="Path_1225" data-name="Path 1225" d="M122.766,203.834a4.233,4.233,0,0,1-2.884-7.333l8.467-7.874a4.235,4.235,0,1,1,5.769,6.2l-8.467,7.874A4.224,4.224,0,0,1,122.766,203.834Zm0,0"/>
      <path id="Path_1226" data-name="Path 1226" d="M143.933,184.15A4.234,4.234,0,0,1,141,176.863l37.467-35.982a4.234,4.234,0,0,1,5.866,6.106l-37.465,35.982A4.224,4.224,0,0,1,143.933,184.15Zm0,0"/>
      <path id="Path_1227" data-name="Path 1227" d="M144.272,215.9a4.233,4.233,0,0,1-2.882-7.335l33.525-31.155a4.234,4.234,0,1,1,5.767,6.2l-33.527,31.157A4.222,4.222,0,0,1,144.272,215.9Zm0,0"/>
      <path id="Path_1228" data-name="Path 1228" d="M190.5,172.941a4.234,4.234,0,0,1-2.938-7.283L204.5,149.353a4.233,4.233,0,1,1,5.874,6.095l-16.933,16.307A4.23,4.23,0,0,1,190.5,172.941Zm0,0"/>
      <path id="Path_1229" data-name="Path 1229" d="M228.6,110.067H16.933A8.475,8.475,0,0,1,8.467,101.6V76.2a8.474,8.474,0,0,1,8.467-8.467H228.6a8.475,8.475,0,0,1,8.467,8.467v25.4A8.476,8.476,0,0,1,228.6,110.067ZM16.933,76.2v25.4H228.606L228.6,76.2Zm0,0"/>
      <path id="Path_1230" data-name="Path 1230" d="M173.567,93.134H12.7a4.233,4.233,0,1,1,0-8.467H173.567a4.233,4.233,0,0,1,0,8.467Zm0,0"/>
      <path id="Path_1231" data-name="Path 1231" d="M232.833,93.134h-38.1a4.233,4.233,0,1,1,0-8.467h38.1a4.233,4.233,0,1,1,0,8.467Zm0,0"/>
    </g>
  </g>
</svg>
