<svg xmlns="http://www.w3.org/2000/svg" xmlns:xlink="http://www.w3.org/1999/xlink" width="254" height="254" viewBox="0 0 254 254">
  <defs>
    <clipPath id="clip-path">
      <circle id="Ellipse_119" data-name="Ellipse 119" cx="127" cy="127" r="127" transform="translate(226 4748)" fill="#fff" stroke="#707070" stroke-width="1"/>
    </clipPath>
  </defs>
  <g id="Mask_Group_4" data-name="Mask Group 4" transform="translate(-226 -4748)" clip-path="url(#clip-path)">
    <g id="sport" transform="translate(226 4748)">
      <path id="Path_1149" data-name="Path 1149" d="M232.833,84.667V232.833H21.167V84.667" fill="#37474f"/>
      <path id="Path_1150" data-name="Path 1150" d="M220.134,84.667V232.833H21.167V84.667" fill="#607d8b"/>
      <path id="Path_1151" data-name="Path 1151" d="M12.7,228.6H241.3a8.466,8.466,0,0,1,8.467,8.467V247.65a2.116,2.116,0,0,1-2.116,2.116H6.35a2.116,2.116,0,0,1-2.116-2.116V237.067A8.466,8.466,0,0,1,12.7,228.6Zm0,0" fill="#6a1b9a"/>
      <path id="Path_1152" data-name="Path 1152" d="M12.7,228.6H228.6a8.466,8.466,0,0,1,8.467,8.467V247.65a2.116,2.116,0,0,1-2.116,2.116H6.35a2.116,2.116,0,0,1-2.116-2.116V237.067A8.466,8.466,0,0,1,12.7,228.6Zm0,0" fill="#9d27b0"/>
      <path id="Path_1153" data-name="Path 1153" d="M93.134,173.567V228.6h-50.8V173.567a4.249,4.249,0,0,1,4.234-4.234H88.9A4.249,4.249,0,0,1,93.134,173.567Zm0,0" fill="#283593"/>
      <path id="Path_1154" data-name="Path 1154" d="M80.433,173.567V228.6h-38.1V173.567a4.249,4.249,0,0,1,4.234-4.234H76.2A4.246,4.246,0,0,1,80.433,173.567Zm0,0" fill="#3f51b5"/>
      <path id="Path_1155" data-name="Path 1155" d="M90.339,67.734H8.467a4.243,4.243,0,0,0-4.232,4.232v12.7A4.243,4.243,0,0,0,8.467,88.9H245.533a4.243,4.243,0,0,0,4.232-4.232v-12.7a4.243,4.243,0,0,0-4.232-4.232H163.661" fill="#6a1b9a"/>
      <path id="Path_1156" data-name="Path 1156" d="M85.886,67.734H8.248a4.138,4.138,0,0,0-4.013,4.232v12.7A4.139,4.139,0,0,0,8.248,88.9h224.8a4.14,4.14,0,0,0,4.015-4.232v-12.7a4.138,4.138,0,0,0-4.015-4.232H155.413" fill="#9d27b0"/>
      <path id="Path_1157" data-name="Path 1157" d="M88.9,114.3v33.868a4.243,4.243,0,0,1-4.232,4.232H50.8a4.325,4.325,0,0,1-3.513-1.862,2.55,2.55,0,0,1-.38-.762,2.671,2.671,0,0,1-.254-.762,5,5,0,0,1-.085-.847V114.3a4.243,4.243,0,0,1,4.232-4.232H84.667A4.189,4.189,0,0,1,88.9,114.3Zm0,0" fill="#00838f"/>
      <path id="Path_1158" data-name="Path 1158" d="M169.333,46.567c0,1.44-.083,2.837-.211,4.232a42.114,42.114,0,0,1-10.753,24.173,40.589,40.589,0,0,1-6.519,5.843,41.778,41.778,0,0,1-20.615,7.874c-1.4.128-2.794.211-4.234.211s-2.837-.083-4.234-.211c-.719-.085-1.438-.169-2.116-.3a41.7,41.7,0,0,1-18.5-7.577,40.589,40.589,0,0,1-6.519-5.843A42.114,42.114,0,0,1,84.879,50.8c-.128-1.4-.211-2.792-.211-4.232s.083-2.837.211-4.234A42.109,42.109,0,0,1,95.632,18.162a40.589,40.589,0,0,1,6.519-5.843,41.7,41.7,0,0,1,18.5-7.577c.678-.128,1.4-.213,2.116-.3,1.4-.128,2.794-.211,4.234-.211s2.837.083,4.234.211a41.759,41.759,0,0,1,20.615,7.874,40.589,40.589,0,0,1,6.519,5.843,42.109,42.109,0,0,1,10.753,24.171C169.249,43.73,169.333,45.127,169.333,46.567Zm0,0" fill="#f57c00"/>
      <path id="Path_1159" data-name="Path 1159" d="M156.634,46.567c0,1.44-.085,2.837-.211,4.232a42.127,42.127,0,0,1-10.753,24.173,40.755,40.755,0,0,1-6.519,5.843,41.707,41.707,0,0,1-18.5,7.577,41.7,41.7,0,0,1-18.5-7.577,40.589,40.589,0,0,1-6.519-5.843A42.114,42.114,0,0,1,84.879,50.8c-.128-1.4-.211-2.792-.211-4.232s.083-2.837.211-4.234A42.109,42.109,0,0,1,95.632,18.162a40.589,40.589,0,0,1,6.519-5.843,41.7,41.7,0,0,1,18.5-7.577,41.707,41.707,0,0,1,18.5,7.577,40.755,40.755,0,0,1,6.519,5.843,42.121,42.121,0,0,1,10.753,24.171C156.549,43.73,156.634,45.127,156.634,46.567Zm0,0" fill="#ff9801"/>
      <path id="Path_1160" data-name="Path 1160" d="M152.4,114.3v33.868a4.243,4.243,0,0,1-4.232,4.232H114.3a4.325,4.325,0,0,1-3.513-1.862,2.55,2.55,0,0,1-.38-.762,2.671,2.671,0,0,1-.254-.762,5,5,0,0,1-.085-.847V114.3a4.243,4.243,0,0,1,4.232-4.232h33.868A4.189,4.189,0,0,1,152.4,114.3Zm0,0" fill="#00838f"/>
      <path id="Path_1161" data-name="Path 1161" d="M215.9,114.3v33.868a4.243,4.243,0,0,1-4.232,4.232H177.8a4.325,4.325,0,0,1-3.513-1.862,2.55,2.55,0,0,1-.38-.762,2.671,2.671,0,0,1-.254-.762,5,5,0,0,1-.085-.847V114.3a4.243,4.243,0,0,1,4.232-4.232h33.868A4.189,4.189,0,0,1,215.9,114.3Zm0,0" fill="#00838f"/>
      <path id="Path_1162" data-name="Path 1162" d="M152.4,173.567v33.866a4.246,4.246,0,0,1-4.232,4.234H114.3a4.332,4.332,0,0,1-3.513-1.864,2.55,2.55,0,0,1-.38-.762,2.651,2.651,0,0,1-.254-.762,4.959,4.959,0,0,1-.085-.847V173.567a4.246,4.246,0,0,1,4.232-4.234h33.868a4.192,4.192,0,0,1,4.232,4.234Zm0,0" fill="#00838f"/>
      <path id="Path_1163" data-name="Path 1163" d="M215.9,173.567v33.866a4.246,4.246,0,0,1-4.232,4.234H177.8a4.332,4.332,0,0,1-3.513-1.864,2.55,2.55,0,0,1-.38-.762,2.651,2.651,0,0,1-.254-.762,4.959,4.959,0,0,1-.085-.847V173.567a4.246,4.246,0,0,1,4.232-4.234h33.868a4.192,4.192,0,0,1,4.232,4.234Zm0,0" fill="#00838f"/>
      <g id="Group_119" data-name="Group 119">
        <path id="Path_1164" data-name="Path 1164" d="M76.2,114.3v33.868a4.246,4.246,0,0,1-4.234,4.232H50.8a4.325,4.325,0,0,1-3.513-1.862,2.55,2.55,0,0,1-.38-.762,2.671,2.671,0,0,1-.254-.762,5,5,0,0,1-.085-.847V114.3a4.243,4.243,0,0,1,4.232-4.232H71.967A4.192,4.192,0,0,1,76.2,114.3Zm0,0" fill="#00bcd4"/>
        <path id="Path_1165" data-name="Path 1165" d="M139.7,114.3v33.868a4.246,4.246,0,0,1-4.234,4.232H114.3a4.325,4.325,0,0,1-3.513-1.862,2.55,2.55,0,0,1-.38-.762,2.671,2.671,0,0,1-.254-.762,5,5,0,0,1-.085-.847V114.3a4.243,4.243,0,0,1,4.232-4.232h21.167A4.192,4.192,0,0,1,139.7,114.3Zm0,0" fill="#00bcd4"/>
        <path id="Path_1166" data-name="Path 1166" d="M203.2,114.3v33.868a4.246,4.246,0,0,1-4.234,4.232H177.8a4.325,4.325,0,0,1-3.513-1.862,2.55,2.55,0,0,1-.38-.762,2.671,2.671,0,0,1-.254-.762,5,5,0,0,1-.085-.847V114.3a4.243,4.243,0,0,1,4.232-4.232h21.167A4.192,4.192,0,0,1,203.2,114.3Zm0,0" fill="#00bcd4"/>
        <path id="Path_1167" data-name="Path 1167" d="M139.7,173.567v33.866a4.249,4.249,0,0,1-4.234,4.234H114.3a4.332,4.332,0,0,1-3.513-1.864,2.55,2.55,0,0,1-.38-.762,2.651,2.651,0,0,1-.254-.762,4.959,4.959,0,0,1-.085-.847V173.567a4.246,4.246,0,0,1,4.232-4.234h21.167a4.2,4.2,0,0,1,4.234,4.234Zm0,0" fill="#00bcd4"/>
        <path id="Path_1168" data-name="Path 1168" d="M203.2,173.567v33.866a4.249,4.249,0,0,1-4.234,4.234H177.8a4.332,4.332,0,0,1-3.513-1.864,2.55,2.55,0,0,1-.38-.762,2.651,2.651,0,0,1-.254-.762,4.959,4.959,0,0,1-.085-.847V173.567a4.246,4.246,0,0,1,4.232-4.234h21.167a4.2,4.2,0,0,1,4.234,4.234Zm0,0" fill="#00bcd4"/>
      </g>
      <path id="Path_1169" data-name="Path 1169" d="M232.833,232.833H21.167a4.233,4.233,0,0,1-4.234-4.232V88.9a4.233,4.233,0,0,1,8.467,0V224.366H228.6V88.9a4.233,4.233,0,0,1,8.467,0V228.6A4.233,4.233,0,0,1,232.833,232.833Zm0,0"/>
      <path id="Path_1170" data-name="Path 1170" d="M247.65,254H6.35A6.357,6.357,0,0,1,0,247.65V237.067a12.715,12.715,0,0,1,12.7-12.7H241.3a12.715,12.715,0,0,1,12.7,12.7V247.65A6.357,6.357,0,0,1,247.65,254ZM8.467,245.533H245.533v-8.467a4.239,4.239,0,0,0-4.234-4.234H12.7a4.239,4.239,0,0,0-4.234,4.234Zm0,0"/>
      <path id="Path_1171" data-name="Path 1171" d="M93.134,232.833h-50.8A4.233,4.233,0,0,1,38.1,228.6V173.567a8.476,8.476,0,0,1,8.467-8.467H88.9a8.476,8.476,0,0,1,8.467,8.467V228.6A4.233,4.233,0,0,1,93.134,232.833Zm-46.567-8.467H88.9v-50.8H46.567Zm0,0"/>
      <path id="Path_1172" data-name="Path 1172" d="M67.734,232.833A4.233,4.233,0,0,1,63.5,228.6V169.333a4.233,4.233,0,0,1,8.467,0V228.6A4.233,4.233,0,0,1,67.734,232.833Zm0,0"/>
      <path id="Path_1173" data-name="Path 1173" d="M76.2,198.967H59.266a4.233,4.233,0,0,1,0-8.467H76.2a4.233,4.233,0,0,1,0,8.467Zm0,0"/>
      <path id="Path_1174" data-name="Path 1174" d="M245.533,93.134H8.467A8.478,8.478,0,0,1,0,84.667v-12.7A8.476,8.476,0,0,1,8.467,63.5H90.339a4.233,4.233,0,0,1,0,8.467H8.467v12.7H245.533v-12.7H163.661a4.233,4.233,0,0,1,0-8.467h81.873A8.476,8.476,0,0,1,254,71.967v12.7A8.478,8.478,0,0,1,245.533,93.134Zm0,0"/>
      <path id="Path_1175" data-name="Path 1175" d="M148.167,215.9H114.3a8.478,8.478,0,0,1-8.467-8.467V173.567A8.478,8.478,0,0,1,114.3,165.1h33.868a8.478,8.478,0,0,1,8.467,8.467v33.866A8.478,8.478,0,0,1,148.167,215.9ZM114.3,173.567v33.866h33.872l0-33.866Zm0,0"/>
      <path id="Path_1176" data-name="Path 1176" d="M211.667,215.9H177.8a8.478,8.478,0,0,1-8.467-8.467V173.567A8.478,8.478,0,0,1,177.8,165.1h33.868a8.478,8.478,0,0,1,8.467,8.467v33.866A8.478,8.478,0,0,1,211.667,215.9ZM177.8,173.567v33.866h33.872l0-33.866Zm0,0"/>
      <path id="Path_1177" data-name="Path 1177" d="M148.167,156.634H114.3a8.479,8.479,0,0,1-8.467-8.467V114.3a8.479,8.479,0,0,1,8.467-8.467h33.868a8.479,8.479,0,0,1,8.467,8.467v33.868A8.479,8.479,0,0,1,148.167,156.634ZM114.3,114.3v33.868h33.872l0-33.868Zm0,0"/>
      <path id="Path_1178" data-name="Path 1178" d="M84.667,156.634H50.8a8.479,8.479,0,0,1-8.467-8.467V114.3a8.479,8.479,0,0,1,8.467-8.467H84.667a8.479,8.479,0,0,1,8.467,8.467v33.868A8.479,8.479,0,0,1,84.667,156.634ZM50.8,114.3v33.868H84.671l0-33.868Zm0,0"/>
      <path id="Path_1179" data-name="Path 1179" d="M211.667,156.634H177.8a8.479,8.479,0,0,1-8.467-8.467V114.3a8.479,8.479,0,0,1,8.467-8.467h33.868a8.479,8.479,0,0,1,8.467,8.467v33.868A8.479,8.479,0,0,1,211.667,156.634ZM177.8,114.3v33.868h33.872l0-33.868Zm0,0"/>
      <path id="Path_1180" data-name="Path 1180" d="M63.5,139.7a4.233,4.233,0,0,1-2.992-7.226L84.679,108.3a4.233,4.233,0,0,1,5.986,5.986L66.494,138.461A4.231,4.231,0,0,1,63.5,139.7Zm0,0"/>
      <path id="Path_1181" data-name="Path 1181" d="M127,139.7a4.233,4.233,0,0,1-2.992-7.226L148.179,108.3a4.233,4.233,0,0,1,5.986,5.986l-24.171,24.173A4.231,4.231,0,0,1,127,139.7Zm0,0"/>
      <path id="Path_1182" data-name="Path 1182" d="M190.5,139.7a4.233,4.233,0,0,1-2.992-7.226L211.679,108.3a4.233,4.233,0,0,1,5.986,5.986l-24.171,24.173A4.231,4.231,0,0,1,190.5,139.7Zm0,0"/>
      <path id="Path_1183" data-name="Path 1183" d="M127,198.887a4.232,4.232,0,0,1-2.992-7.226l24.171-24.171a4.233,4.233,0,0,1,5.986,5.986l-24.171,24.171A4.212,4.212,0,0,1,127,198.887Zm0,0"/>
      <path id="Path_1184" data-name="Path 1184" d="M190.5,198.887a4.232,4.232,0,0,1-2.992-7.226l24.171-24.171a4.233,4.233,0,0,1,5.986,5.986l-24.171,24.171A4.212,4.212,0,0,1,190.5,198.887Zm0,0"/>
      <path id="Path_1185" data-name="Path 1185" d="M127,93.134a46.567,46.567,0,1,1,46.567-46.567A46.568,46.568,0,0,1,127,93.134Zm0-84.667a38.1,38.1,0,1,0,38.1,38.1A38.1,38.1,0,0,0,127,8.467Zm0,0"/>
      <path id="Path_1186" data-name="Path 1186" d="M98.8,82.338a4.231,4.231,0,0,1-3.694-6.294A62.878,62.878,0,0,0,101.6,46.567a62.891,62.891,0,0,0-6.492-29.479,4.234,4.234,0,1,1,7.393-4.122,70.452,70.452,0,0,1,7.565,33.6,70.457,70.457,0,0,1-7.565,33.6A4.232,4.232,0,0,1,98.8,82.338Zm0,0"/>
      <path id="Path_1187" data-name="Path 1187" d="M155.2,82.338a4.225,4.225,0,0,1-3.7-2.172,70.445,70.445,0,0,1-7.565-33.6,70.452,70.452,0,0,1,7.565-33.6,4.234,4.234,0,1,1,7.393,4.122A62.891,62.891,0,0,0,152.4,46.567a62.891,62.891,0,0,0,6.492,29.479A4.232,4.232,0,0,1,155.2,82.34Zm0,0"/>
      <path id="Path_1188" data-name="Path 1188" d="M127,93.134a4.235,4.235,0,0,1-4.234-4.234V4.234a4.234,4.234,0,1,1,8.468,0V88.9A4.235,4.235,0,0,1,127,93.134Zm0,0"/>
      <path id="Path_1189" data-name="Path 1189" d="M169.333,50.8H84.667a4.233,4.233,0,1,1,0-8.467h84.665a4.233,4.233,0,1,1,0,8.467Zm0,0"/>
    </g>
  </g>
</svg>
